<?xml version="1.0" encoding="UTF-8"?>
<svg xmlns="http://www.w3.org/2000/svg" xmlns:xlink="http://www.w3.org/1999/xlink" viewBox="0 0 16 16" width="16px" height="16px">
<g id="surface15813326">
<path style=" stroke:none;fill-rule:nonzero;fill:rgb(100%,100%,100%);fill-opacity:1;" d="M 3.5 2 C 2.675781 2 2 2.675781 2 3.5 L 2 12.5 C 2 13.324219 2.675781 14 3.5 14 L 12.5 14 C 13.324219 14 14 13.324219 14 12.5 L 14 3.5 C 14 2.675781 13.324219 2 12.5 2 Z M 3.5 3 L 12.5 3 C 12.78125 3 13 3.21875 13 3.5 L 13 12.5 C 13 12.78125 12.78125 13 12.5 13 L 3.5 13 C 3.21875 13 3 12.78125 3 12.5 L 3 3.5 C 3 3.21875 3.21875 3 3.5 3 Z M 8 4 L 8 9.5 C 8 10.328125 7.328125 11 6.5 11 C 5.671875 11 5 10.328125 5 9.5 C 5 8.671875 5.671875 8 6.5 8 C 6.679688 8 6.839844 8.03125 7 8.089844 L 7 7.050781 C 6.839844 7.019531 6.671875 7 6.5 7 C 5.121094 7 4 8.121094 4 9.5 C 4 10.878906 5.121094 12 6.5 12 C 7.878906 12 9 10.878906 9 9.5 L 9 6.210938 C 9.164062 6.351562 9.289062 6.554688 9.480469 6.644531 C 10.3125 7.019531 11.25 7 12 7 L 12 6 C 11.25 6 10.4375 5.980469 9.894531 5.734375 C 9.351562 5.484375 9 5.117188 9 4 Z M 8 4 "/>
</g>
</svg>
